<?xml version="1.0" encoding="utf-8"?>
<!-- Generator: Adobe Illustrator 22.0.0, SVG Export Plug-In . SVG Version: 6.00 Build 0)  -->
<svg version="1.1" id="Capa_1" xmlns="http://www.w3.org/2000/svg" xmlns:xlink="http://www.w3.org/1999/xlink" x="0px" y="0px"
	 viewBox="0 0 1200 400" style="enable-background:new 0 0 1200 400;" xml:space="preserve">
<style type="text/css">
	.st0{fill:#576573;}
	.st1{fill:#00CBC6;}
</style>
<path class="st0" d="M128.7,303.8c-57.4,0-104.2-46.7-104.2-104.2S71.3,95.5,128.7,95.5s104.2,46.7,104.2,104.2
	S186.2,303.8,128.7,303.8z M128.7,107.6c-50.8,0-92.1,41.3-92.1,92.1s41.3,92.1,92.1,92.1s92.1-41.3,92.1-92.1
	S179.5,107.6,128.7,107.6z"/>
<g>
	<path class="st1" d="M89,161h74.2c0,0,21.3-0.9,22.6,23.8c0,0-1,20.6-22.6,21.4c-21.6,0.8-67.3,0.1-67.3,0.1s-6.7,0.9-6.9,8.3
		c-0.2,7.4,7,8.4,7,8.4h69.9c0,0,33.4-2.6,35.1-39c0,0,0.3-34.2-35.5-39H89L89,161z"/>
	<path class="st1" d="M99.2,231.9"/>
	<path class="st1" d="M169,238H94.8c0,0-21.3,0.9-22.6-23.8c0,0,1-20.6,22.6-21.4c21.6-0.8,67.3-0.1,67.3-0.1s6.7-0.9,6.9-8.3
		c0.2-7.4-7-8.4-7-8.4H92.1c0,0-33.4,2.6-35.1,39c0,0-0.3,34.2,35.5,39H169L169,238z"/>
</g>
<path class="st0" d="M257,147h18.8c8,0,14.5,2.3,19.7,6.8c5.2,4.6,9,10.9,11.5,18.9c2.5,8.1,3.8,17.3,3.8,27.6
	c0,10.4-1.3,19.7-3.8,27.7c-2.5,8.1-6.3,14.4-11.5,19c-5.2,4.6-11.7,6.9-19.8,6.9H257V147z M268,162v77h6.4c5.5,0,9.9-1.7,13.4-5
	c3.5-3.3,6.1-7.9,7.8-13.6c1.7-5.8,2.6-12.4,2.6-19.8c0-7.4-0.8-14-2.5-19.9c-1.7-5.8-4.3-10.4-7.8-13.7c-3.5-3.3-8-5-13.5-5H268z"
	/>
<path class="st0" d="M326,147h11v107h-11V147z"/>
<path class="st0" d="M378.6,145c4.3,0,8.1,0.7,11.3,2.1c3.2,1.4,5.8,2.9,7.6,4.5c1.9,1.6,3,2.6,3.4,3.2l-5.7,13.3
	c-0.6-0.6-1.6-1.6-3.1-2.9c-1.4-1.3-3.2-2.5-5.3-3.5c-2.1-1.1-4.5-1.6-7.1-1.6c-3.9,0-7.1,1.1-9.4,3.3c-2.3,2.2-3.5,5.4-3.5,9.5
	c0,4.2,1.4,7.7,4.1,10.5s6.4,5.5,11.2,8.4c3.5,2,6.9,4.5,10.1,7.4c3.2,2.9,5.9,6.6,7.9,10.9c2.1,4.3,3.1,9.6,3.1,15.7
	c0,6.4-1.2,11.9-3.6,16.4c-2.4,4.5-5.6,7.9-9.6,10.3c-4,2.4-8.4,3.5-13.3,3.5c-4.7,0-9-0.8-12.8-2.5c-3.8-1.6-6.8-3.4-9.1-5.1
	c-2.3-1.8-3.6-2.9-4-3.5l6.1-13.9c0.6,0.7,1.9,1.8,3.8,3.4c1.9,1.6,4.3,3,7.1,4.4c2.8,1.4,5.8,2,9,2c4.7,0,8.2-1.5,10.6-4.4
	c2.4-2.9,3.6-6.7,3.6-11.3c0-3.5-0.8-6.6-2.3-9.1c-1.5-2.6-3.6-4.9-6.2-7c-2.6-2.1-5.6-4.1-8.9-6.2c-3.4-2.1-6.5-4.5-9.4-7.1
	c-2.9-2.6-5.1-5.9-6.9-9.6c-1.7-3.8-2.6-8.4-2.6-13.9c0-5.4,1.1-10.1,3.2-14.1c2.2-4,5-7.2,8.6-9.4C370.4,146.1,374.4,145,378.6,145
	z"/>
<path class="st0" d="M454.5,239.8c4.4,0,8.2-0.9,11.5-2.6c3.3-1.8,5.7-3.5,7.1-5.1l4.9,14c-1.7,2.2-4.7,4.4-8.9,6.6
	c-4.2,2.2-9.3,3.3-15.2,3.3c-5.5,0-10.7-1.4-15.4-4.2c-4.8-2.8-8.9-6.7-12.5-11.8c-3.6-5-6.4-10.9-8.4-17.6c-2-6.7-3-13.9-3-21.7
	c0-7.8,1-15.1,3-21.9c2-6.7,4.8-12.6,8.4-17.7c3.6-5.1,7.7-9,12.5-11.8c4.8-2.8,9.9-4.3,15.4-4.3c5.9,0,11,1.1,15.2,3.3
	c4.2,2.2,7.2,4.4,8.9,6.6l-4.9,14c-1.4-1.7-3.8-3.4-7.1-5.1c-3.3-1.8-7.1-2.6-11.5-2.6c-5.5,0-10.3,1.7-14.4,5.2
	c-4.1,3.5-7.3,8.1-9.6,14.1c-2.3,5.9-3.5,12.6-3.5,20c0,7.5,1.2,14.1,3.5,20.1c2.3,5.9,5.5,10.6,9.6,14.1
	C444.2,238,449,239.8,454.5,239.8z"/>
<path class="st0" d="M492,147h26.1c4,0,7.5,1.2,10.7,3.7c3.2,2.5,5.7,6,7.7,10.7c1.9,4.7,2.9,10.3,2.9,17c0,6.6-0.9,12.1-2.6,16.5
	c-1.7,4.3-3.8,7.6-6.2,9.8c-2.4,2.2-4.6,3.4-6.7,3.6l17.7,45.8h-11.1l-17.2-45H503v45h-11V147z M503,197h11.7
	c4.1,0,7.5-1.5,10.2-4.4c2.7-2.9,4.1-7.7,4.1-14.3s-1.4-11.3-4.1-14.1c-2.7-2.8-6.1-4.2-10.2-4.2H503V197z"/>
<path class="st0" d="M558,147h45v15h-34v31h33v14h-33v32h34v15h-45V147z"/>
<path class="st0" d="M635,162h-20v-15h51v15h-20v92h-11V162z"/>
<path class="st0" d="M679,147h45v15h-34v31h33v14h-33v32h34v15h-45V147z"/>
<path class="st0" d="M771,147h49v24h-30v18h30v23h-30v18h30v24h-49V147z"/>
<path class="st0" d="M878.6,254h-21.7l-26.4-107h21.8l15.5,71.5l15.4-71.5h21.8L878.6,254z"/>
<path class="st0" d="M915,147h49v24h-30v18h30v23h-30v18h30v24h-49V147z"/>
<path class="st0" d="M1023.7,254L998,176.5V254h-19V147h26.1l25.9,77v-77h19v107H1023.7z"/>
<path class="st0" d="M1078,171h-17v-24h53v24h-17v83h-19V171z"/>
<path class="st0" d="M1153.6,145c4.7,0,8.9,0.7,12.5,2.2s6.5,3,8.8,4.7c2.2,1.7,3.6,2.8,4.1,3.3l-9.2,22.2c-0.6-0.6-1.6-1.6-3.1-2.8
	c-1.5-1.2-3.2-2.3-5.1-3.2s-3.8-1.5-5.7-1.5c-2.5,0-4.5,0.6-6.1,1.7c-1.6,1.1-2.4,2.9-2.4,5.4c0,2.5,1,4.7,2.9,6.5
	c1.9,1.9,5.2,3.9,9.8,6.2c3.8,1.9,7.2,4.3,10.2,7.3c3,3,5.5,6.6,7.3,11c1.8,4.4,2.7,9.6,2.7,15.6c0,5.7-0.8,10.5-2.5,14.6
	c-1.6,4.1-3.8,7.4-6.6,10c-2.8,2.6-5.9,4.5-9.3,5.8c-3.4,1.2-7,1.9-10.6,1.9c-5.4,0-10.2-0.9-14.3-2.6c-4.2-1.7-7.6-3.5-10.1-5.5
	c-2.6-2-4.1-3.3-4.7-4.1l9.5-23.2c0.4,0.5,1.3,1.3,2.7,2.4c1.4,1.1,3,2.2,4.9,3.4c1.9,1.2,3.9,2.2,6,3c2.1,0.8,4.1,1.2,6,1.2
	c3,0,5.2-0.7,6.6-2.2c1.4-1.5,2.2-3.4,2.2-5.9c0-2.8-1-5.2-3.1-7.3c-2.1-2.1-5.6-4.4-10.5-7.1c-3.2-1.8-6.3-4-9.1-6.7
	c-2.9-2.7-5.2-6.1-7-10.3c-1.8-4.2-2.7-9.4-2.7-15.7c0-6.3,1.2-11.7,3.7-16.2c2.5-4.5,5.7-8,9.7-10.5
	C1144.9,146.2,1149.1,145,1153.6,145z"/>
</svg>
